HIERARCHY
ROOT hip
{
  OFFSET 0 0 0
  CHANNELS 6 Xposition Yposition Zposition Zrotation Yrotation Xrotation
  JOINT abdomen
  {
    OFFSET 0 20.6881 -0.73152
    CHANNELS 3 Zrotation Xrotation Yrotation
    JOINT chest
    {
      OFFSET 0 11.7043 -0.48768
      CHANNELS 3 Zrotation Xrotation Yrotation
      JOINT neck
      {
        OFFSET 0 22.1894 -2.19456
        CHANNELS 3 Zrotation Xrotation Yrotation
        JOINT head
        {
          OFFSET -0.24384 7.07133 1.2192
          CHANNELS 3 Zrotation Xrotation Yrotation
          JOINT leftEye
          {
            OFFSET 4.14528 8.04674 8.04672
            CHANNELS 3 Zrotation Xrotation Yrotation
            End Site
            {
              OFFSET 1 0 0
            }
          }
          JOINT rightEye
          {
            OFFSET -3.6576 8.04674 8.04672
            CHANNELS 3 Zrotation Xrotation Yrotation
            End Site
            {
              OFFSET 1 0 0
            }
          }
        }
      }
      JOINT rCollar
      {
        OFFSET -2.68224 19.2634 -4.8768
        CHANNELS 3 Zrotation Xrotation Yrotation
        JOINT rShldr
        {
          OFFSET -8.77824 -1.95073 1.46304
          CHANNELS 3 Zrotation Xrotation Yrotation
          JOINT rForeArm
          {
            OFFSET -28.1742 -1.7115 0.48768
            CHANNELS 3 Zrotation Xrotation Yrotation
            JOINT rHand
            {
              OFFSET -22.5879 0.773209 7.07136
              CHANNELS 3 Zrotation Xrotation Yrotation
              JOINT rThumb1
              {
                OFFSET -1.2192 -0.487915 3.41376
                CHANNELS 3 Zrotation Xrotation Yrotation
                JOINT rThumb2
                {
                  OFFSET -3.37035 -0.52449 3.41376
                  CHANNELS 3 Zrotation Xrotation Yrotation
                  End Site
                  {
                    OFFSET -1.78271 -1.18214 1.43049
                  }
                }
              }
              JOINT rIndex1
              {
                OFFSET -7.75947 0.938293 5.60832
                CHANNELS 3 Zrotation Xrotation Yrotation
                JOINT rIndex2
                {
                  OFFSET -2.54057 -0.884171 1.56538
                  CHANNELS 3 Zrotation Xrotation Yrotation
                  End Site
                  {
                    OFFSET -1.62519 -0.234802 1.16502
                  }
                }
              }
              JOINT rMid1
              {
                OFFSET -8.24714 1.18213 3.41376
                CHANNELS 3 Zrotation Xrotation Yrotation
                JOINT rMid2
                {
                  OFFSET -3.10165 -0.590103 1.0647
                  CHANNELS 3 Zrotation Xrotation Yrotation
                  End Site
                  {
                    OFFSET -2.48547 -0.328903 0.83742
                  }
                }
              }
              JOINT rRing1
              {
                OFFSET -8.82822 0.546677 1.51678
                CHANNELS 3 Zrotation Xrotation Yrotation
                JOINT rRing2
                {
                  OFFSET -2.60934 -0.819778 -0.0198488
                  CHANNELS 3 Zrotation Xrotation Yrotation
                  End Site
                  {
                    OFFSET -2.33842 -0.294052 0.168128
                  }
                }
              }
              JOINT rPinky1
              {
                OFFSET -8.27202 -0.0477905 -0.4584
                CHANNELS 3 Zrotation Xrotation Yrotation
                JOINT rPinky2
                {
                  OFFSET -1.82734 -0.647385 -0.700984
                  CHANNELS 3 Zrotation Xrotation Yrotation
                  End Site
                  {
                    OFFSET -1.69225 -0.51767 -0.607171
                  }
                }
              }
            }
          }
        }
      }
      JOINT lCollar
      {
        OFFSET 2.68224 19.2634 -4.8768
        CHANNELS 3 Zrotation Xrotation Yrotation
        JOINT lShldr
        {
          OFFSET 8.77824 -1.95073 1.46304
          CHANNELS 3 Zrotation Xrotation Yrotation
          JOINT lForeArm
          {
            OFFSET 28.1742 -1.7115 0.48768
            CHANNELS 3 Zrotation Xrotation Yrotation
            JOINT lHand
            {
              OFFSET 22.5879 0.773209 7.07136
              CHANNELS 3 Zrotation Xrotation Yrotation
              JOINT lThumb1
              {
                OFFSET 1.2192 -0.487915 3.41376
                CHANNELS 3 Zrotation Xrotation Yrotation
                JOINT lThumb2
                {
                  OFFSET 3.37035 -0.52449 3.41376
                  CHANNELS 3 Zrotation Xrotation Yrotation
                  End Site
                  {
                    OFFSET 1.78271 -1.18214 1.43049
                  }
                }
              }
              JOINT lIndex1
              {
                OFFSET 7.75947 0.938293 5.60832
                CHANNELS 3 Zrotation Xrotation Yrotation
                JOINT lIndex2
                {
                  OFFSET 2.54057 -0.884171 1.56538
                  CHANNELS 3 Zrotation Xrotation Yrotation
                  End Site
                  {
                    OFFSET 1.62519 -0.234802 1.16502
                  }
                }
              }
              JOINT lMid1
              {
                OFFSET 8.24714 1.18213 3.41376
                CHANNELS 3 Zrotation Xrotation Yrotation
                JOINT lMid2
                {
                  OFFSET 3.10165 -0.590103 1.0647
                  CHANNELS 3 Zrotation Xrotation Yrotation
                  End Site
                  {
                    OFFSET 2.48547 -0.328903 0.83742
                  }
                }
              }
              JOINT lRing1
              {
                OFFSET 8.82822 0.546677 1.51678
                CHANNELS 3 Zrotation Xrotation Yrotation
                JOINT lRing2
                {
                  OFFSET 2.60934 -0.819778 -0.0198488
                  CHANNELS 3 Zrotation Xrotation Yrotation
                  End Site
                  {
                    OFFSET 2.33842 -0.294052 0.168128
                  }
                }
              }
              JOINT lPinky1
              {
                OFFSET 8.27202 -0.0477905 -0.4584
                CHANNELS 3 Zrotation Xrotation Yrotation
                JOINT lPinky2
                {
                  OFFSET 1.82734 -0.647385 -0.700984
                  CHANNELS 3 Zrotation Xrotation Yrotation
                  End Site
                  {
                    OFFSET 1.69225 -0.51767 -0.607171
                  }
                }
              }
            }
          }
        }
      }
    }
  }
  JOINT rButtock
  {
    OFFSET -8.77824 4.35084 1.2192
    CHANNELS 3 Zrotation Xrotation Yrotation
    JOINT rThigh
    {
      OFFSET 0 -1.70687 -2.19456
      CHANNELS 3 Zrotation Xrotation Yrotation
      JOINT rShin
      {
        OFFSET 0 -36.8199 0.73152
        CHANNELS 3 Zrotation Xrotation Yrotation
        JOINT rFoot
        {
          OFFSET 0.73152 -45.1104 -5.12064
          CHANNELS 3 Zrotation Xrotation Yrotation
          End Site
          {
            OFFSET -1.1221 -3.69964 12.103
          }
        }
      }
    }
  }
  JOINT lButtock
  {
    OFFSET 8.77824 4.35084 1.2192
    CHANNELS 3 Zrotation Xrotation Yrotation
    JOINT lThigh
    {
      OFFSET 0 -1.70687 -2.19456
      CHANNELS 3 Zrotation Xrotation Yrotation
      JOINT lShin
      {
        OFFSET 0 -36.8199 0.73152
        CHANNELS 3 Zrotation Xrotation Yrotation
        JOINT lFoot
        {
          OFFSET -0.73152 -45.1104 -5.12064
          CHANNELS 3 Zrotation Xrotation Yrotation
          End Site
          {
            OFFSET 1.1221 -3.69964 12.103
          }
        }
      }
    }
  }
}
MOTION
Frames:	7
Frame Time:	0.00833333
-49.0801 67.5073 9.0972 -178.912 87.2703 -116.283 -9.08355 0.903618 1.19444 2.34895 -2.34101 0.706612 -7.11955 11.079 -1.45031 32.7063 -50.8844 15.1121 -0.0 0.0 0.0 -0.0 0.0 0.0 -7.68549e-15 -2.38235e-13 -2.92151e-14 28.5636 20.3341 67.5449 -22.8306 -17.0573 46.0978 -0.439985 18.5178 2.69809 3.29343e-10 -1.85923e-10 2.48302e-10 5.71512e-10 -3.26716e-10 4.22345e-10 3.29343e-10 -1.85921e-10 2.48284e-10 7.73091 5.47488 0.417314 3.29342e-10 -1.8592e-10 2.48298e-10 2.90554 0.965183 0.102902 3.29347e-10 -1.85917e-10 2.483e-10 10.2786 0.731801 0.0259123 3.29338e-10 -1.85915e-10 2.48304e-10 2.22167 -0.733487 -0.20892 -7.82033e-15 -2.38215e-13 -2.95506e-14 -6.19136 5.6873 -68.2518 20.4953 -13.6477 -39.8963 0.379049 17.2413 -2.49979 6.76215e-11 2.96499e-10 -9.90508e-11 1.18549e-10 5.1175e-10 -1.6983e-10 6.76214e-11 2.96497e-10 -9.90447e-11 -7.73091 5.47488 -0.417314 6.76235e-11 2.96498e-10 -9.9054e-11 -2.90554 0.965183 -0.102902 6.76202e-11 2.96498e-10 -9.90568e-11 -10.2786 0.731801 -0.0259123 6.76283e-11 2.96501e-10 -9.90651e-11 -2.22167 -0.733487 0.20892 -2.03217e-16 0.0 -3.88251e-19 161.073 -69.3146 156.835 -17.6283 86.7986 18.4382 -7.19054 -14.4814 -14.2238 2.03217e-16 0.0 3.88251e-19 -5.85798 -34.055 -3.61004 0.0378901 32.0408 -1.35126 1.18781 -5.8505 0.386095
-48.7053 67.6108 9.14154 -177.879 87.3698 -115.153 -9.11514 0.771316 1.29646 2.3717 -2.32493 0.736451 -7.07958 11.1317 -1.45177 32.5949 -50.8289 15.0092 -0.0 0.0 0.0 -0.0 0.0 0.0 -4.76428e-14 -6.81431e-13 -4.24794e-14 28.6078 20.3987 67.4477 -22.8192 -17.0388 46.0652 -0.440426 18.5266 2.69947 3.69584e-10 -2.92681e-10 2.59364e-10 6.40996e-10 -5.10369e-10 4.43188e-10 3.69586e-10 -2.92679e-10 2.59341e-10 7.73091 5.47488 0.417314 3.69584e-10 -2.92681e-10 2.59356e-10 2.90554 0.965183 0.102902 3.6959e-10 -2.92676e-10 2.59359e-10 10.2786 0.731801 0.0259123 3.69577e-10 -2.92673e-10 2.59364e-10 2.22167 -0.733487 -0.20892 -4.78268e-14 -6.81411e-13 -4.28901e-14 -6.14587 5.81897 -68.2811 20.4977 -13.6509 -39.9023 0.379925 17.2605 -2.50275 4.67027e-10 3.71503e-10 3.10076e-10 8.13191e-10 6.43568e-10 5.30948e-10 4.67028e-10 3.71504e-10 3.10082e-10 -7.73091 5.47488 -0.417314 4.6703e-10 3.71504e-10 3.10071e-10 -2.90554 0.965183 -0.102902 4.67023e-10 3.71504e-10 3.10068e-10 -10.2786 0.731801 -0.0259123 4.67033e-10 3.71505e-10 3.10056e-10 -2.22167 -0.733487 0.20892 -2.03217e-16 0.0 -3.88251e-19 160.237 -69.5696 156.215 -16.9502 86.6873 17.7636 -7.24536 -14.4525 -14.3517 2.03217e-16 0.0 3.88251e-19 -5.71958 -34.1792 -3.51497 0.0401943 32.0817 -1.33667 1.07442 -4.87487 -0.284704
-48.328 67.7402 9.21505 -173.278 87.388 -110.447 -9.11137 0.723572 1.36399 2.39419 -2.35043 0.754743 -7.04805 11.1506 -1.44988 32.4412 -50.7228 14.8778 -0.0 0.0 0.0 -0.0 0.0 0.0 -7.14598e-14 -9.60636e-13 -5.30258e-14 28.7461 20.4943 67.34 -22.8053 -17.0163 46.0256 -0.443871 18.5971 2.71049 5.9929e-10 -4.17728e-10 5.01917e-10 1.04193e-09 -7.30806e-10 8.5935e-10 5.99295e-10 -4.17726e-10 5.01892e-10 7.73091 5.47488 0.417314 5.99291e-10 -4.17729e-10 5.01907e-10 2.90554 0.965183 0.102902 5.99298e-10 -4.17723e-10 5.01911e-10 10.2786 0.731801 0.0259123 5.99284e-10 -4.1772e-10 5.01917e-10 2.22167 -0.733487 -0.20892 -7.167e-14 -9.60618e-13 -5.34731e-14 -6.14895 5.95349 -68.2782 20.4985 -13.652 -39.9044 0.381646 17.2983 -2.50857 3.26886e-10 4.22612e-10 1.6987e-10 5.67809e-10 7.30284e-10 2.90972e-10 3.26887e-10 4.22615e-10 1.69877e-10 -7.73091 5.47488 -0.417314 3.26889e-10 4.22614e-10 1.69864e-10 -2.90554 0.965183 -0.102902 3.2688e-10 4.22614e-10 1.69861e-10 -10.2786 0.731801 -0.0259123 3.26891e-10 4.22615e-10 1.69848e-10 -2.22167 -0.733487 0.20892 -2.03217e-16 0.0 -3.88251e-19 159.365 -69.8898 155.553 -16.2401 86.5598 17.0575 -7.30125 -14.5214 -14.4403 2.03217e-16 0.0 3.88251e-19 -5.57485 -34.2889 -3.44908 0.0438719 32.1835 -1.32205 0.980555 -3.89 -0.966092
-47.8593 67.7382 9.22807 -174.945 87.2188 -112.499 -9.06116 0.805339 1.37252 2.41719 -2.43791 0.753739 -7.03358 11.1188 -1.44178 32.236 -50.5366 14.7112 -0.0 0.0 0.0 -0.0 0.0 0.0 -7.42718e-14 -1.01726e-12 -6.02923e-14 29.0421 20.6505 67.2174 -22.7901 -16.9915 45.9823 -0.452036 18.7621 2.73632 1.20784e-09 -6.18189e-10 1.17275e-09 2.10487e-09 -1.09101e-09 2.00675e-09 1.20784e-09 -6.18188e-10 1.17273e-09 7.73091 5.47488 0.417314 1.20784e-09 -6.1819e-10 1.17274e-09 2.90554 0.965183 0.102902 1.20785e-09 -6.18185e-10 1.17275e-09 10.2786 0.731801 0.0259123 1.20783e-09 -6.18182e-10 1.17276e-09 2.22167 -0.733487 -0.20892 -7.44739e-14 -1.01725e-12 -6.07144e-14 -6.23468 6.0934 -68.2106 20.4999 -13.6538 -39.9078 0.385288 17.3779 -2.52087 -7.08925e-10 5.08717e-10 -9.37616e-10 -1.23895e-09 8.70983e-10 -1.60634e-09 -7.08925e-10 5.08719e-10 -9.37608e-10 -7.73091 5.47488 -0.417314 -7.08922e-10 5.08719e-10 -9.37621e-10 -2.90554 0.965183 -0.102902 -7.08931e-10 5.08719e-10 -9.37622e-10 -10.2786 0.731801 -0.0259123 -7.08921e-10 5.0872e-10 -9.37633e-10 -2.22167 -0.733487 0.20892 -2.03217e-16 0.0 -3.88251e-19 158.432 -70.3111 154.822 -15.5565 86.4253 16.3792 -7.36599 -14.7468 -14.4788 2.03217e-16 0.0 3.88251e-19 -5.43755 -34.339 -3.43385 0.0488998 32.3511 -1.30727 0.906823 -2.92842 -1.65843
-47.42 67.849 9.24736 -176.689 87.1108 -114.341 -8.97698 0.972451 1.34046 2.43645 -2.56725 0.739507 -7.03023 11.053 -1.42868 32.0013 -50.297 14.5265 -0.0 0.0 0.0 -0.0 0.0 0.0 -6.4918e-14 -9.41093e-13 -6.55927e-14 29.4487 20.8471 67.0848 -22.7749 -16.9668 45.9392 -0.463709 18.9927 2.77254 2.08653e-09 -8.81052e-10 2.14635e-09 3.63984e-09 -1.5657e-09 3.67119e-09 2.08654e-09 -8.8105e-10 2.14633e-09 7.73091 5.47488 0.417314 2.08653e-09 -8.81052e-10 2.14634e-09 2.90554 0.965183 0.102902 2.08654e-09 -8.81049e-10 2.14635e-09 10.2786 0.731801 0.0259123 2.08653e-09 -8.81047e-10 2.14636e-09 2.22167 -0.733487 -0.20892 -6.50914e-14 -9.41088e-13 -6.59499e-14 -6.37838 6.2366 -68.0979 20.5019 -13.6563 -39.9128 0.390456 17.4897 -2.53814 -2.35969e-09 6.14026e-10 -2.70173e-09 -4.11774e-09 1.04037e-09 -4.6286e-09 -2.35969e-09 6.14027e-10 -2.70172e-09 -7.73091 5.47488 -0.417314 -2.35969e-09 6.14027e-10 -2.70174e-09 -2.90554 0.965183 -0.102902 -2.3597e-09 6.14027e-10 -2.70173e-09 -10.2786 0.731801 -0.0259123 -2.35969e-09 6.14029e-10 -2.70174e-09 -2.22167 -0.733487 0.20892 -2.03217e-16 0.0 -3.88251e-19 157.415 -70.7964 154.003 -14.8756 86.2789 15.7046 -7.44497 -15.0546 -14.5105 2.03217e-16 0.0 3.88251e-19 -5.29891 -34.364 -3.44587 0.0549153 32.5733 -1.29249 0.852236 -1.97543 -2.37743
-47.124 67.9781 9.31561 -174.357 87.1648 -111.69 -8.87512 1.15687 1.30914 2.45338 -2.70767 0.724932 -7.02307 10.979 -1.41606 31.7449 -50.0498 14.3289 -0.0 0.0 0.0 -0.0 0.0 0.0 -4.77148e-14 -7.96623e-13 -6.92066e-14 29.8586 21.0331 66.9489 -22.7562 -16.9364 45.8859 -0.476391 19.2372 2.81109 2.8908e-09 -1.08754e-09 3.07407e-09 5.04559e-09 -1.94212e-09 5.25751e-09 2.8908e-09 -1.08754e-09 3.07405e-09 7.73091 5.47488 0.417314 2.8908e-09 -1.08754e-09 3.07406e-09 2.90554 0.965183 0.102902 2.8908e-09 -1.08754e-09 3.07407e-09 10.2786 0.731801 0.0259123 2.89079e-09 -1.08754e-09 3.07407e-09 2.22167 -0.733487 -0.20892 -4.78541e-14 -7.96623e-13 -6.94943e-14 -6.52263 6.38071 -67.9989 20.4998 -13.6536 -39.9077 0.395089 17.5887 -2.55346 -4.03467e-09 6.17879e-10 -4.41508e-09 -7.03753e-09 1.03447e-09 -7.5628e-09 -4.03467e-09 6.17879e-10 -4.41507e-09 -7.73091 5.47488 -0.417314 -4.03467e-09 6.17879e-10 -4.41509e-09 -2.90554 0.965183 -0.102902 -4.03468e-09 6.17879e-10 -4.41508e-09 -10.2786 0.731801 -0.0259123 -4.03467e-09 6.17882e-10 -4.41508e-09 -2.22167 -0.733487 0.20892 -2.03217e-16 0.0 -3.88251e-19 156.346 -71.2904 153.132 -14.1332 86.1032 14.9676 -7.51724 -15.3682 -14.5287 2.03217e-16 0.0 3.88251e-19 -5.13544 -34.4396 -3.45482 0.0620268 32.8473 -1.27781 0.82045 -0.97057 -3.11271
-46.7576 68.0159 9.32126 -177.25 87.184 -114.706 -8.77242 1.29056 1.31989 2.46955 -2.82834 0.722906 -6.99718 10.9227 -1.40944 31.4735 -49.841 14.1223 -0.0 0.0 0.0 -0.0 0.0 0.0 -2.69783e-14 -6.48337e-13 -7.14134e-14 30.1638 21.157 66.8156 -22.7304 -16.8949 45.8123 -0.487313 19.4438 2.84379 3.27607e-09 -1.11889e-09 3.60726e-09 5.72085e-09 -2.00753e-09 6.17054e-09 3.27607e-09 -1.11889e-09 3.60725e-09 7.73091 5.47488 0.417314 3.27607e-09 -1.11889e-09 3.60725e-09 2.90554 0.965183 0.102902 3.27607e-09 -1.11889e-09 3.60726e-09 10.2786 0.731801 0.0259123 3.27606e-09 -1.11889e-09 3.60727e-09 2.22167 -0.733487 -0.20892 -2.7093e-14 -6.48337e-13 -7.16619e-14 -6.60952 6.52253 -67.9723 20.4891 -13.6395 -39.8808 0.397032 17.6299 -2.55984 -5.14313e-09 3.99617e-10 -5.37027e-09 -8.96728e-09 6.49326e-10 -9.19592e-09 -5.14313e-09 3.99616e-10 -5.37026e-09 -7.73091 5.47488 -0.417314 -5.14312e-09 3.99617e-10 -5.37027e-09 -2.90554 0.965183 -0.102902 -5.14313e-09 3.99616e-10 -5.37027e-09 -10.2786 0.731801 -0.0259123 -5.14312e-09 3.9962e-10 -5.37027e-09 -2.22167 -0.733487 0.20892 -2.03217e-16 0.0 -3.88251e-19 155.274 -71.7384 152.262 -13.2908 85.8803 14.1276 -7.56153 -15.6111 -14.5259 2.03217e-16 0.0 3.88251e-19 -4.92346 -34.6416 -3.43032 0.0703484 33.1706 -1.26336 0.817558 0.146443 -3.85419
